<svg width="83" height="44" viewBox="0 0 83 44" fill="none" xmlns="http://www.w3.org/2000/svg"><path d="M52.2788 7.15332C53.4961 6.54242 55.4535 5.16884 56.269 7.09473C56.6955 8.10228 55.7566 8.8538 55.2896 9.62598C54.0112 11.7385 52.1564 13.3139 50.5688 15.1787C49.2365 16.7102 47.9048 18.1728 46.3735 19.5098C45.2877 20.458 44.3967 21.8016 43.4526 22.9248C43.6744 23.0777 44.8916 23.9636 45.0386 24.04C46.6217 24.8625 46.9693 24.881 47.9146 26.4336C48.1071 26.1826 48.4003 25.8938 48.646 25.6973C50.8764 23.9154 52.9648 21.9618 55.1948 20.1807C56.1318 19.4321 57.1582 18.7722 58.1099 18.0674C59.4595 16.9327 60.8037 16.2266 62.3257 15.3652C65.8667 13.3614 70.0224 11.8468 74.147 12.25C74.9238 12.326 75.6201 12.4725 76.3032 12.8643C77.9648 13.8175 78.7649 15.118 79.1431 16.9668C79.3042 17.7539 79.4983 18.4101 79.5464 19.1992C79.5524 19.7563 79.32 20.8854 79.0532 21.334C78.6497 22.0128 77.6461 22.3088 76.9771 21.8018C75.9524 21.0248 76.2917 20.1472 76.3862 19.0791C76.4112 18.6571 76.0471 17.5675 75.9663 17.1279C75.9049 16.8247 75.718 16.438 75.6587 16.0811L75.6519 16.041C74.9715 15.666 73.5978 14.7172 72.8228 14.7969C71.8583 14.8959 70.6208 15.0453 69.5962 15.0762C68.5118 15.3084 67.1454 15.5118 66.1138 15.9238C63.3951 17.0094 60.8295 18.575 58.4585 20.2617C57.3452 21.0538 56.3279 21.6166 55.313 22.4473C53.0856 24.2705 50.9587 26.1476 48.7202 27.9414C48.8723 28.1854 49.2165 29.1323 49.2104 29.4209C49.1837 30.6533 48.1244 32.8442 47.3218 33.7188C47.012 33.9522 46.7418 34.1522 46.3989 34.3359C46.027 34.5185 45.6198 34.6865 45.1978 34.8154C44.9165 34.9014 44.6287 34.9701 44.3403 35.0137C44.124 35.0464 43.9073 35.0648 43.6929 35.0664C43.55 35.0674 43.4082 35.061 43.2681 35.0459C43.1979 35.0383 43.1283 35.0286 43.0591 35.0166C42.8801 34.9856 42.6707 34.9351 42.4692 34.8877C42.3685 34.864 42.2695 34.8417 42.1772 34.8223L41.9253 34.7773C41.5255 35.2063 41.0361 35.5828 40.5718 35.9424C40.3052 36.1488 39.976 36.5245 39.7163 36.6934C39.3356 36.941 39.0167 37.2694 38.689 37.5654C38.5799 37.6639 38.4696 37.7585 38.356 37.8457C38.2264 37.9451 38.0989 38.0477 37.9702 38.1484C37.5713 38.4608 37.1745 38.7766 36.7808 39.0967C36.1079 39.6436 35.4382 40.1953 34.7593 40.7344C33.8619 41.447 32.9479 42.1373 31.9858 42.7588C31.8772 42.8288 31.7584 42.8985 31.6353 42.9697C31.408 43.1012 31.1648 43.2364 30.936 43.3779C30.724 43.5091 30.5249 43.6467 30.3628 43.793L30.3735 43.8369C30.3735 43.87 30.3322 43.8701 30.3628 43.8701H27.0679C27.1352 43.1203 27.4511 42.3744 27.8325 41.7314C28.0514 41.3627 28.4463 40.9859 28.7144 40.6357C29.488 39.6223 30.2511 38.6006 31.0034 37.5713C32.014 36.2003 32.7207 34.8295 33.6626 33.4248C33.9396 33.0117 34.2085 32.5406 34.5571 32.1836C32.2296 32.2951 29.7047 32.505 27.5356 33.3955C26.0232 34.0164 24.4163 34.8309 22.9263 35.5146C21.163 36.3239 19.9458 38.1242 18.6245 39.4795C18.0296 40.0896 17.4123 40.6763 16.8052 41.2744C16.0736 41.9919 15.2513 43.2448 14.1235 43.3604C12.0345 43.2884 12.5902 40.1107 13.2769 38.918C13.621 38.4188 14.6805 37.2199 15.2349 36.9854C16.2256 36.567 16.6938 36.2368 17.5679 35.5762C18.5543 34.8307 19.7719 34.2767 20.7905 33.5605C21.2571 33.2326 21.9344 33.0426 22.3687 32.6406C22.9863 32.0517 23.5294 31.3481 24.104 30.7168C25.1466 29.6553 26.0323 28.4967 26.9927 27.3604L30.4009 23.3281C31.0882 22.5047 31.9447 21.3586 32.6382 20.6201C32.1673 20.3564 30.0523 19.4303 29.5942 19.4648C28.7088 19.5316 27.0862 20.3355 26.1685 20.5791C25.6778 20.7374 24.9665 20.7991 24.4888 20.9639C22.5913 21.6185 20.9527 21.6618 18.9634 21.585C18.403 21.5635 17.4952 21.9981 16.8892 22.0488C15.0172 22.2057 12.9999 21.7497 11.2192 21.1758C10.2143 20.8475 9.09648 19.8015 8.57568 18.8984C8.38476 18.5668 8.46423 18.0038 8.61572 17.6621C9.12429 16.4549 9.68971 15.9982 10.8677 15.5312C12.0294 15.0707 12.7611 14.9227 14.0337 15.0869C14.2661 15.1169 14.9055 15.2528 15.1177 15.2383C16.276 15.1032 17.3375 15.2246 18.479 15.2734C20.8394 15.3743 23.1911 15.6342 25.5239 16.0195C26.7641 16.2244 28.0818 16.953 29.3442 17.0732C29.717 17.1085 30.804 16.6634 31.2026 16.5576C32.6881 16.0657 34.095 15.518 35.5112 14.8604C36.1058 14.5843 36.9089 14.3557 37.4243 13.9609C37.6426 13.7937 38.0385 13.0358 38.2544 12.7949C39.2369 11.3055 40.1696 10.0768 41.5776 8.9668C42.003 8.63147 42.4075 7.69155 43.02 7.48242C43.3461 7.37106 43.6291 7.35608 43.9565 7.50195C45.8557 8.42058 44.0133 10.2115 43.4897 11.335C46.4403 10.1571 49.29 8.33789 52.2788 7.15332ZM33.2905 37.3848C32.8876 38.018 32.5764 38.4248 32.2407 39.1084C33.3578 38.4208 34.2629 37.3067 35.2456 36.4521C35.8833 35.8977 36.5229 35.3319 37.1606 34.7793C37.0137 34.3573 35.6153 34.5908 35.1577 34.4648L33.2905 37.3848ZM36.5552 32.3203C36.2326 32.9091 36.0589 33.1641 35.6499 33.7012C35.4864 33.9448 35.3023 34.2083 35.1577 34.4609H35.1587L35.1577 34.4639C35.6153 34.5897 37.013 34.3559 37.1606 34.7773C37.5089 34.5384 37.8539 34.2789 38.1587 33.9863L38.1567 33.9854L38.1587 33.9844C38.3848 33.773 38.6185 33.5698 38.8599 33.376C38.1327 32.8577 37.2922 32.7532 36.5552 32.3203ZM41.7056 25.3906C41.4027 25.5989 40.7335 26.4833 40.52 26.8193C40.0663 27.5335 38.8668 28.7306 38.5679 29.4434C38.6427 29.5745 41.2044 30.8228 41.564 30.9414C41.6693 30.9757 42.0607 30.9451 42.1929 30.9072L42.2046 30.8945C42.7031 30.3699 43.9565 29.6812 44.5649 29.2051C44.7218 29.0824 44.8646 28.9552 44.9995 28.8076C45.0539 28.7549 45.2949 28.8075 45.3159 28.6572C45.1169 28.3137 44.6011 27.4727 44.3716 27.1924C44 26.7395 42.4462 25.5667 41.9292 25.4268C41.8563 25.4074 41.7809 25.3949 41.7056 25.3906ZM35.0161 21.5195C34.0931 22.3342 33.464 23.0672 32.6226 23.9453C31.9463 24.6509 31.284 25.1767 30.6489 25.9561L27.9546 29.2979C27.5896 29.7421 27.3389 30.1572 26.9194 30.5635C28.435 30.2393 29.3638 29.8783 31.0132 29.6328C32.2127 29.3689 35.2114 29.2494 36.4526 29.3066C37.0279 28.4477 39.3786 24.6689 39.9214 24.3389C38.7571 23.6032 37.4996 22.9992 36.3384 22.25C35.9428 21.9949 35.373 21.8121 35.0161 21.5195ZM49.8833 10.793C48.0588 11.4927 46.0402 12.4071 44.2368 13.1982C43.6231 13.4675 42.3678 13.8778 41.9155 14.2793C41.1998 14.9148 40.7387 15.7991 39.9409 16.4834C38.7687 17.4887 37.5019 18.4197 36.5952 19.6699C38.3567 20.3443 40.0737 20.8525 41.6196 21.9199C42.2991 20.7904 43.1534 19.9188 43.9165 18.8584C44.4037 18.1819 44.8108 17.432 45.2632 16.7256C46.6304 14.5907 48.2282 12.6489 50.1021 10.9316C50.0432 10.8525 49.9751 10.8341 49.8833 10.793ZM17.3169 17.1924C16.2624 17.1466 15.2219 17.424 14.1772 17.252C14.0646 17.2333 13.9362 17.201 13.8247 17.1924C13.6403 17.2621 13.6371 17.295 13.4995 17.3564C13.1642 17.5063 12.2409 17.7022 12.0757 18.042C12.1119 18.2999 13.8342 18.3951 14.1704 18.4336C15.2121 18.5528 16.2315 18.7143 17.2632 18.8916C17.9678 18.989 18.8492 18.8619 19.5718 18.9121C20.2412 18.8872 21.0848 18.9694 21.728 18.8848C22.5293 18.7794 23.2072 18.6593 24.0278 18.6045C24.7401 18.518 25.4523 18.4271 26.1636 18.333C24.5286 17.9194 22.8891 17.6371 21.2095 17.4805C20.728 17.4537 20.2303 17.4414 19.7485 17.4385C18.9207 17.4335 18.1431 17.2283 17.3169 17.1924ZM35.9214 16.7969C35.3091 17.055 33.7417 17.7972 33.1821 18.1348C33.3391 18.2095 33.5134 18.2973 33.6733 18.3613C33.9525 18.4299 33.9994 18.4564 34.1851 18.6768C34.3247 18.558 35.9613 16.888 35.9819 16.8174L35.9214 16.7969ZM50.4497 10.5469C50.2087 10.5541 50.0951 10.6611 49.8833 10.793C49.929 10.8134 49.9688 10.8281 50.0044 10.8477C50.0223 10.8574 50.0391 10.8684 50.0552 10.8818C50.0714 10.8954 50.0872 10.9117 50.1021 10.9316C50.2147 10.8613 50.4096 10.6921 50.4663 10.5684L50.4497 10.5469Z" fill="black"/></svg>
