<svg width="20" height="21" viewBox="0 0 20 21" fill="none" xmlns="http://www.w3.org/2000/svg">
<path d="M15.9582 8.34958C16.2911 6.16724 14.5967 4.99406 12.2799 4.21144L13.0314 1.25518L11.1964 0.806719L10.4648 3.68507C9.98236 3.56719 9.48689 3.45597 8.99457 3.34578L9.73149 0.448461L7.89756 0L7.14549 2.95522C6.74619 2.86604 6.35421 2.7779 5.97373 2.68513L5.97582 2.6759L3.44523 2.05625L2.95709 3.97823C2.95709 3.97823 4.31855 4.28421 4.28981 4.30317C5.03299 4.48512 5.1673 4.9674 5.14483 5.34975L4.28875 8.71756C4.33997 8.73038 4.40636 8.74883 4.47953 8.77753C4.41838 8.76267 4.35305 8.74626 4.28563 8.73037L3.08564 13.4482C2.9947 13.6696 2.76423 14.0017 2.24473 13.8756C2.26302 13.9018 0.910962 13.5492 0.910962 13.5492L0 15.609L2.38793 16.1928C2.83217 16.3019 3.26752 16.4162 3.69608 16.5238L2.9367 19.5139L4.76959 19.9624L5.52166 17.0041C6.02234 17.1373 6.5084 17.2604 6.984 17.3762L6.23454 20.3207L8.06951 20.7691L8.8289 17.7847C11.9579 18.3654 14.3108 18.1311 15.3012 15.3558C16.0993 13.1212 15.2615 11.8322 13.6152 10.9916C14.8141 10.7205 15.7172 9.94712 15.9582 8.34958V8.34958ZM11.7656 14.115C11.1985 16.3496 7.36186 15.1416 6.11798 14.8387L7.12563 10.8773C8.3695 11.1818 12.3583 11.7845 11.7656 14.115ZM12.3332 8.31728C11.8158 10.35 8.62245 9.31722 7.58659 9.06403L8.50017 5.47123C9.53603 5.72442 12.872 6.19696 12.3332 8.31728Z" fill="#2D2D2D"/>
</svg>
